# xmcd
#
# Track frame offsets:
#	150
#	14669
#	31565
#	53113
#	63454
#	85026
#	104274
#	123171
#	136698
#	151363
#
# Disc length: 2269 seconds
#
# Revision: 0
# Processed by: cddbd v1.5PL3 Copyright (c) Steve Scherf et al.
# Submitted via: dBpowerAMP V4.0
#
DISCID=7208db0a
DTITLE=The Bushwackers Band - Flash Jack From Gundagai
DYEAR=1900
DGENRE=Country
TTITLE0=Stringybark Creek - (The Ballad of Ned Kelly)
TTITLE1=Annie
TTITLE2=Van Dieman's Land
TTITLE3=Lime Juice Tub
TTITLE4=The Flying Pieman
TTITLE5=Bushfire
TTITLE6=Past Carin
TTITLE7=Hard Luck Stories
TTITLE8=Wild Horses
TTITLE9=Fannie Bay
EXTD=
EXTT0=
EXTT1=
EXTT2=
EXTT3=
EXTT4=
EXTT5=
EXTT6=
EXTT7=
EXTT8=
EXTT9=
PLAYORDER=
